<?xml version="1.0" standalone="no"?>
<!DOCTYPE svg PUBLIC "-//W3C//DTD SVG 20010904//EN"
 "http://www.w3.org/TR/2001/REC-SVG-20010904/DTD/svg10.dtd">
<svg version="1.0" xmlns="http://www.w3.org/2000/svg"
 width="492.000000pt" height="492.000000pt" viewBox="0 0 492.000000 492.000000"
 preserveAspectRatio="xMidYMid meet">
<metadata>
Created by potrace 1.14, written by Peter Selinger 2001-2017
</metadata>
<g transform="translate(0.000000,492.000000) scale(0.100000,-0.100000)"
fill="#000000" stroke="none">
<path d="M1200 3058 l1 -963 117 -121 c111 -116 399 -416 512 -534 66 -69 343
-359 475 -496 l100 -104 97 92 c53 51 141 136 195 188 54 52 186 178 293 280
106 102 218 209 249 238 31 30 130 124 221 210 90 87 186 178 212 205 l48 47
0 598 0 599 -447 -1 -448 -1 -1 -155 c0 -85 1 -160 3 -165 2 -7 101 -10 278
-10 151 0 275 -2 276 -5 1 -3 2 -166 3 -364 l1 -358 -135 -128 c-74 -70 -151
-142 -170 -160 -31 -29 -274 -258 -370 -349 -181 -172 -285 -267 -297 -275
-11 -6 -26 3 -55 35 -32 36 -185 199 -328 349 -14 15 -83 89 -155 166 -187
200 -276 293 -309 326 l-30 29 -1 712 c0 392 1 719 3 728 3 14 108 15 1080 14
592 0 1083 1 1090 3 9 3 12 46 12 168 l0 164 -1260 0 -1260 0 0 -962z"/>
<path d="M2498 3393 c-8 -10 -27 -38 -41 -63 -33 -54 -39 -64 -99 -158 -27
-40 -48 -75 -48 -77 0 -2 -44 -73 -97 -158 -54 -84 -103 -162 -110 -173 -6
-10 -62 -100 -124 -199 -63 -99 -112 -182 -111 -185 1 -2 122 -4 269 -5 l268
0 0 -372 c0 -288 2 -370 12 -360 6 6 96 147 199 312 102 165 201 323 219 350
115 181 215 343 215 351 0 5 -109 9 -258 8 -141 0 -262 1 -267 3 -7 2 -10 132
-10 373 0 204 0 370 -1 370 0 0 -8 -8 -16 -17z"/>
</g>
</svg>
